<svg width="22" height="13" viewBox="0 0 22 13" fill="none" xmlns="http://www.w3.org/2000/svg">
<path d="M0 12.6281C0.15 10.8448 0.696 9.20312 1.638 7.70312C2.58 6.20312 3.834 5.01146 5.4 4.12813L3.55 0.928125C3.45 0.778125 3.425 0.619791 3.475 0.453125C3.525 0.286458 3.63333 0.161458 3.8 0.0781248C3.93333 -0.00520853 4.08333 -0.0218749 4.25 0.0281251C4.41667 0.0781251 4.55 0.178125 4.65 0.328125L6.5 3.52812C7.93333 2.92812 9.43333 2.62812 11 2.62812C12.5667 2.62812 14.0667 2.92812 15.5 3.52812L17.35 0.328125C17.45 0.178125 17.5833 0.0781251 17.75 0.0281251C17.9167 -0.0218749 18.0667 -0.00520853 18.2 0.0781248C18.3667 0.161458 18.475 0.286458 18.525 0.453125C18.575 0.619791 18.55 0.778125 18.45 0.928125L16.6 4.12813C18.1667 5.01146 19.4207 6.20312 20.362 7.70312C21.3033 9.20312 21.8493 10.8448 22 12.6281H0ZM6 9.87813C6.35 9.87813 6.646 9.75712 6.888 9.51513C7.13 9.27313 7.25067 8.97746 7.25 8.62813C7.24933 8.27879 7.12833 7.98279 6.887 7.74013C6.64567 7.49746 6.35 7.37679 6 7.37813C5.65 7.37946 5.354 7.50046 5.112 7.74113C4.87 7.98179 4.74933 8.27746 4.75 8.62813C4.75067 8.97879 4.87167 9.27479 5.113 9.51612C5.35433 9.75746 5.65 9.87813 6 9.87813ZM16 9.87813C16.35 9.87813 16.646 9.75712 16.888 9.51513C17.13 9.27313 17.2507 8.97746 17.25 8.62813C17.2493 8.27879 17.1283 7.98279 16.887 7.74013C16.6457 7.49746 16.35 7.37679 16 7.37813C15.65 7.37946 15.354 7.50046 15.112 7.74113C14.87 7.98179 14.7493 8.27746 14.75 8.62813C14.7507 8.97879 14.8717 9.27479 15.113 9.51612C15.3543 9.75746 15.65 9.87813 16 9.87813Z" fill="#F5F5F5"/>
</svg>
