<svg width="46" height="12" viewBox="0 0 46 12" fill="none" xmlns="http://www.w3.org/2000/svg">
<path d="M10.672 10.992C10.672 11.088 10.5973 11.136 10.448 11.136H10.32L8.39999 11.12L6.52799 11.136C6.46399 11.1467 6.39466 11.152 6.31999 11.152C6.11733 11.152 6.01599 11.1093 6.01599 11.024C6.01599 10.9387 6.14933 10.8853 6.41599 10.864C6.97066 10.8107 7.24799 10.72 7.24799 10.592C7.24799 10.4533 5.79199 8.72 2.87999 5.39199V10.016C2.87999 10.3893 2.93866 10.624 3.05599 10.72C3.17333 10.8053 3.48799 10.848 3.99999 10.848C4.11733 10.848 4.17599 10.9013 4.17599 11.008C4.17599 11.104 4.10133 11.152 3.95199 11.152C3.84533 11.152 3.74933 11.1467 3.66399 11.136L1.43999 11.104C1.30133 11.104 1.13599 11.1093 0.943993 11.12C0.76266 11.1413 0.575993 11.152 0.383993 11.152H0.239993C0.0799932 11.152 -6.82473e-06 11.104 -6.82473e-06 11.008C-6.82473e-06 10.9013 0.197327 10.8427 0.591993 10.832C0.95466 10.8213 1.16799 10.7413 1.23199 10.592C1.26399 10.5387 1.27999 10.2027 1.27999 9.584L1.26399 0.671994C1.25333 0.447995 0.965327 0.335995 0.399993 0.335995C0.143993 0.335995 0.0159932 0.277328 0.0159932 0.159994C0.0159932 0.0639947 0.10666 0.015995 0.287993 0.015995C0.341327 0.015995 0.41066 0.0213283 0.495993 0.0319948C0.66666 0.0533279 1.14133 0.0639944 1.91999 0.0639944C2.75199 0.0639944 3.27999 0.0533279 3.50399 0.0319948C3.62133 0.0213283 3.74399 0.015995 3.87199 0.015995C4.06399 0.015995 4.15999 0.0746616 4.15999 0.191995C4.15999 0.255994 4.12799 0.298661 4.06399 0.319995C4.01066 0.330661 3.82933 0.341328 3.51999 0.351995C3.21066 0.362661 3.02399 0.405328 2.95999 0.479995C2.90666 0.554661 2.87999 0.794661 2.87999 1.2V5.10399L4.23999 3.74399C6.29866 1.68533 7.32799 0.613328 7.32799 0.527994C7.32799 0.389328 7.07733 0.325328 6.57599 0.335995C6.25599 0.346661 6.09599 0.293328 6.09599 0.175995C6.09599 0.101328 6.17066 0.0586611 6.31999 0.0479946C6.46933 0.0373281 6.98666 0.0319948 7.87199 0.0319948H8.75199C9.12533 0.0319948 9.33866 0.0373281 9.39199 0.0479946C9.49866 0.0693277 9.55199 0.122661 9.55199 0.207994C9.55199 0.325328 9.43466 0.383995 9.19999 0.383995C8.70933 0.373328 8.39466 0.383994 8.25599 0.415995C8.11733 0.447995 7.97866 0.533328 7.83999 0.671994C7.14666 1.39733 6.09066 2.48533 4.67199 3.93599L4.25599 4.35199L4.04799 4.57599C4.11199 4.65066 4.37866 4.93866 4.84799 5.43999C5.74399 6.36799 7.02933 7.856 8.70399 9.904C9.05599 10.3307 9.29599 10.5867 9.42399 10.672C9.56266 10.7573 9.82399 10.8107 10.208 10.832C10.5173 10.8533 10.672 10.9067 10.672 10.992ZM19.8562 0.159994C19.8562 0.266661 19.7229 0.314661 19.4562 0.303994L19.1042 0.287994H18.8162C18.6456 0.287994 18.5442 0.319995 18.5122 0.383995C18.4802 0.437328 18.4642 0.613328 18.4642 0.911995V10.128C18.4642 10.6933 18.4589 11.024 18.4482 11.12C18.4376 11.216 18.4056 11.264 18.3522 11.264C18.2882 11.264 18.2136 11.2053 18.1282 11.088L16.0802 8.09599C14.8962 6.35733 13.4562 4.18666 11.7602 1.58399L11.7762 10.512C11.7869 10.6507 11.8669 10.7413 12.0162 10.784C12.1656 10.816 12.5229 10.8373 13.0882 10.848C13.2269 10.848 13.2962 10.8907 13.2962 10.976C13.2962 11.0827 13.1576 11.136 12.8802 11.136C12.7842 11.136 12.4802 11.12 11.9682 11.088C11.7976 11.0773 11.6322 11.072 11.4722 11.072C11.4829 11.072 11.3869 11.0827 11.1842 11.104C10.9922 11.1253 10.6936 11.136 10.2882 11.136H10.1282C9.88291 11.136 9.76024 11.088 9.76024 10.992C9.76024 10.896 9.86691 10.848 10.0802 10.848C10.7096 10.8373 11.0722 10.8 11.1682 10.736C11.2749 10.6613 11.3282 10.432 11.3282 10.048V2.16C11.3282 1.27466 11.1469 0.719995 10.7842 0.495995C10.6136 0.389328 10.3096 0.335995 9.87224 0.335995C9.59491 0.335995 9.45624 0.282661 9.45624 0.175995C9.45624 0.0799948 9.53624 0.0319948 9.69624 0.0319948C9.90958 0.0319948 10.1816 0.0373281 10.5122 0.0479946C10.8429 0.0586611 11.0189 0.0639944 11.0402 0.0639944C11.0722 0.0639944 11.2216 0.0586611 11.4882 0.0479946C11.8402 0.0479946 12.1816 0.0426613 12.5122 0.0319948L18.0322 8.24V1.12C18.0322 0.789328 18.0269 0.591995 18.0162 0.527994C18.0056 0.453328 17.9629 0.399995 17.8882 0.367994C17.8136 0.325328 17.5576 0.303994 17.1202 0.303994C16.7362 0.303994 16.5442 0.255994 16.5442 0.159994C16.5442 0.0533276 16.6722 -5.72205e-06 16.9282 -5.72205e-06H17.4882C17.6269 -5.72205e-06 17.7762 -5.72205e-06 17.9362 -5.72205e-06C18.1069 0.0106614 18.2082 0.015995 18.2402 0.015995C18.2509 0.015995 18.3469 0.0106614 18.5282 -5.72205e-06C18.6989 -5.72205e-06 18.8589 -5.72205e-06 19.0082 -5.72205e-06H19.5042C19.7389 -5.72205e-06 19.8562 0.0533276 19.8562 0.159994ZM30.2282 5.58399C30.2282 7.46133 29.5722 8.92266 28.2602 9.968C27.3002 10.736 26.0149 11.12 24.4042 11.12C24.3616 11.12 24.1696 11.1147 23.8282 11.104C23.4976 11.0933 23.0122 11.088 22.3722 11.088H21.5722L20.3082 11.104C20.2336 11.1147 20.1536 11.12 20.0682 11.12C19.8656 11.12 19.7642 11.0667 19.7642 10.96C19.7642 10.864 19.9349 10.816 20.2762 10.816C20.7136 10.816 20.9856 10.736 21.0922 10.576C21.1349 10.5013 21.1562 10.2987 21.1562 9.968V1.344C21.1562 0.821328 21.1136 0.517328 21.0282 0.431994C20.9536 0.346661 20.6816 0.303994 20.2122 0.303994C19.9669 0.303994 19.8442 0.245328 19.8442 0.127995C19.8442 0.042661 19.9349 -5.72205e-06 20.1162 -5.72205e-06C20.1056 -5.72205e-06 20.2229 0.00532786 20.4682 0.015995C20.7136 0.0266616 20.9536 0.0319948 21.1882 0.0319948H22.9002C24.8202 0.0319948 26.1802 0.165328 26.9802 0.431994C27.9509 0.751995 28.7349 1.38666 29.3322 2.33599C29.9296 3.27466 30.2282 4.35733 30.2282 5.58399ZM28.4362 5.51999C28.4362 3.74933 28.0896 2.45333 27.3962 1.63199C26.7029 0.799995 25.6202 0.383995 24.1482 0.383995C23.4336 0.383995 23.0016 0.458662 22.8522 0.607995C22.7882 0.682661 22.7562 0.938661 22.7562 1.37599V9.888C22.7562 10.1867 22.7616 10.368 22.7722 10.432C22.7936 10.496 22.8416 10.5493 22.9162 10.592C23.1722 10.72 23.7109 10.784 24.5322 10.784C25.6842 10.784 26.6122 10.3787 27.3162 9.568C28.0629 8.71466 28.4362 7.36533 28.4362 5.51999ZM34.8654 10.992C34.8654 11.0773 34.8014 11.12 34.6734 11.12H34.5134C34.4494 11.088 33.724 11.072 32.3374 11.072C32.0707 11.072 31.804 11.0827 31.5374 11.104C31.3987 11.1147 31.1854 11.12 30.8974 11.12C30.7587 11.12 30.6894 11.072 30.6894 10.976C30.6894 10.8907 30.828 10.8427 31.1054 10.832C31.532 10.8213 31.7827 10.7733 31.8574 10.688C31.932 10.592 31.9694 10.2827 31.9694 9.76V1.344C31.9694 0.821328 31.9427 0.527995 31.8894 0.463995C31.8254 0.357328 31.532 0.293328 31.0094 0.271995C30.8067 0.261328 30.7054 0.218661 30.7054 0.143994C30.7054 0.0479943 30.7694 -5.72205e-06 30.8974 -5.72205e-06L33.0574 0.0319948C33.2174 0.0319948 33.5267 0.0266616 33.9854 0.015995L34.5934 -5.72205e-06C34.764 -5.72205e-06 34.8494 0.0479943 34.8494 0.143994C34.8494 0.229328 34.6147 0.282661 34.1454 0.303994C33.8787 0.314661 33.7134 0.362661 33.6494 0.447994C33.596 0.533328 33.5694 0.757328 33.5694 1.12V9.664C33.5694 10.272 33.596 10.6027 33.6494 10.656C33.7667 10.7733 34.1134 10.8427 34.6894 10.864C34.8067 10.864 34.8654 10.9067 34.8654 10.992ZM45.4326 5.58399C45.4326 7.46133 44.7766 8.92266 43.4646 9.968C42.5046 10.736 41.2193 11.12 39.6086 11.12C39.566 11.12 39.374 11.1147 39.0326 11.104C38.702 11.0933 38.2166 11.088 37.5766 11.088H36.7766L35.5126 11.104C35.438 11.1147 35.358 11.12 35.2726 11.12C35.07 11.12 34.9686 11.0667 34.9686 10.96C34.9686 10.864 35.1393 10.816 35.4806 10.816C35.918 10.816 36.19 10.736 36.2966 10.576C36.3393 10.5013 36.3606 10.2987 36.3606 9.968V1.344C36.3606 0.821328 36.318 0.517328 36.2326 0.431994C36.158 0.346661 35.886 0.303994 35.4166 0.303994C35.1713 0.303994 35.0486 0.245328 35.0486 0.127995C35.0486 0.042661 35.1393 -5.72205e-06 35.3206 -5.72205e-06C35.31 -5.72205e-06 35.4273 0.00532786 35.6726 0.015995C35.918 0.0266616 36.158 0.0319948 36.3926 0.0319948H38.1046C40.0246 0.0319948 41.3846 0.165328 42.1846 0.431994C43.1553 0.751995 43.9393 1.38666 44.5366 2.33599C45.134 3.27466 45.4326 4.35733 45.4326 5.58399ZM43.6406 5.51999C43.6406 3.74933 43.294 2.45333 42.6006 1.63199C41.9073 0.799995 40.8246 0.383995 39.3526 0.383995C38.638 0.383995 38.206 0.458662 38.0566 0.607995C37.9926 0.682661 37.9606 0.938661 37.9606 1.37599V9.888C37.9606 10.1867 37.966 10.368 37.9766 10.432C37.998 10.496 38.046 10.5493 38.1206 10.592C38.3766 10.72 38.9153 10.784 39.7366 10.784C40.8886 10.784 41.8166 10.3787 42.5206 9.568C43.2673 8.71466 43.6406 7.36533 43.6406 5.51999Z" fill="#454545"/>
</svg>
