<svg width="15" height="42" viewBox="0 0 15 42" fill="none" xmlns="http://www.w3.org/2000/svg">
<path fill-rule="evenodd" clip-rule="evenodd" d="M5.92818 0.984471C6.56771 -0.328182 8.43223 -0.328133 9.0718 0.984471L14.8222 12.7876C15.0593 13.2742 15.0593 13.8435 14.8222 14.33L9.0718 26.1332L9.00824 26.2525C8.7406 26.714 8.31134 26.99 7.84989 27.0823V41.6489C7.84989 41.8428 7.69323 42 7.49999 42C7.30679 42 7.15009 41.8428 7.15009 41.6489V27.0823C6.65023 26.9823 6.18799 26.6665 5.92818 26.1332L0.17775 14.33C-0.0592332 13.8435 -0.0592671 13.2742 0.17775 12.7876L5.92818 0.984471ZM8.44308 1.29273C8.05931 0.505216 6.94062 0.505172 6.5569 1.29273L0.806474 13.0963C0.664341 13.3881 0.664375 13.7295 0.806474 14.0214L6.5569 25.8249C6.94062 26.6125 8.05936 26.6125 8.44308 25.8249L14.1935 14.0214C14.3356 13.7295 14.3357 13.3881 14.1935 13.0963L8.44308 1.29273Z" fill="#F9F8F6"/>
</svg>
